Coordinates
version=1
nRows=11
nColumns=63
inDegrees=yes

Units are S.I. units (second, meters, Newtons, ...)
If the header above contains a line with 'inDegrees', this indicates whether rotational values are in degrees (yes) or radians (no).

endheader
time	pelvis_tilt	pelvis_list	pelvis_rotation	pelvis_tx	pelvis_ty	pelvis_tz	hip_flexion_r	hip_adduction_r	hip_rotation_r	knee_angle_r	knee_angle_r_beta	ankle_angle_r	subtalar_angle_r	mtp_angle_r	hip_flexion_l	hip_adduction_l	hip_rotation_l	knee_angle_l	knee_angle_l_beta	ankle_angle_l	subtalar_angle_l	mtp_angle_l	L5_S1_Flex_Ext	L5_S1_Lat_Bending	L5_S1_axial_rotation	L4_L5_Flex_Ext	L4_L5_Lat_Bending	L4_L5_axial_rotation	L3_L4_Flex_Ext	L3_L4_Lat_Bending	L3_L4_axial_rotation	L2_L3_Flex_Ext	L2_L3_Lat_Bending	L2_L3_axial_rotation	L1_L2_Flex_Ext	L1_L2_Lat_Bending	L1_L2_axial_rotation	L1_T12_Flex_Ext	L1_T12_Lat_Bending	L1_T12_axial_rotation	Abs_r3	Abs_r2	Abs_r1	Abs_t1	Abs_t2	neck_flexion	neck_bending	neck_rotation	arm_flex_r	arm_add_r	arm_rot_r	elbow_flex_r	pro_sup_r	wrist_flex_r	wrist_dev_r	arm_flex_l	arm_add_l	arm_rot_l	elbow_flex_l	pro_sup_l	wrist_flex_l	wrist_dev_l
      1.35897436	     -1.29477318	     -5.23161714	     98.06953859	      0.20013294	      0.76288744	      0.69855929	     14.21547627	     -3.99473255	     -2.41170053	     17.12246978	      0.29884347	     23.29275076	     -9.01583541	      0.00000000	     13.74084475	      2.46200330	      2.50938558	     11.74941683	      0.20506601	     26.40814740	      2.05000076	      0.00000000	      0.02227180	     -0.06625373	     -1.66125074	      0.04136095	     -0.08811746	     -1.76507891	      0.03659033	     -0.16108932	     -1.76507891	      0.02545443	     -0.16108932	     -1.45359440	      0.02068159	     -0.13510461	     -1.34976622	      0.01272610	     -0.10262703	     -1.24593805	      0.15908521	     -0.74947546	     -9.23937823	      0.00000000	      0.00000000	     23.90495430	     -0.36789796	     -2.95074321	      3.72177075	     -9.75274097	      9.55257382	     99.26019055	     86.42246104	    -11.25943842	     10.51058491	     -4.68728200	    -15.34871715	     11.14697233	    119.59479379	     87.74279174	    -15.37616619	      4.41183224
      1.38461538	     -1.62541814	     -5.32962246	     96.51193014	      0.20326178	      0.76352547	      0.69881863	     14.37335939	     -3.83404417	     -0.45017397	     16.77249928	      0.29273534	     22.95197879	     -9.30565404	      0.00000000	     13.66309954	      2.28586866	      0.03770816	     11.47133700	      0.20021260	     26.74218489	      3.37824240	      0.00000000	      0.05331077	     -0.12606922	     -1.31532965	      0.09900343	     -0.16767206	     -1.39753775	      0.08758426	     -0.30652469	     -1.39753775	      0.06092888	     -0.30652469	     -1.15091344	      0.04950438	     -0.25708034	     -1.06870534	      0.03046177	     -0.19528121	     -0.98649724	      0.38079349	     -1.42612018	     -7.31546890	      0.00000000	      0.00000000	     25.54083209	     -1.07780332	     -4.90524863	      2.60241425	     -9.61245135	      9.83369792	     98.07315247	     86.06890800	    -13.43844368	      8.76636188	     -3.52982826	    -15.38640984	     10.43337695	    122.08133754	     86.75238619	    -15.79093383	      6.44777779
      1.41025641	     -1.90606248	     -5.40748422	     95.27765079	      0.20577949	      0.76407603	      0.69925632	     14.46049485	     -3.81487618	      0.61161348	     16.42492594	      0.28666904	     22.86131404	     -8.61169707	      0.00000000	     13.64082043	      2.25524936	     -1.05223270	     11.34669029	      0.19803710	     26.63213983	      3.16039746	      0.00000000	      0.08024460	     -0.17657103	     -1.10555357	      0.14902224	     -0.23483947	     -1.17465067	      0.13183385	     -0.42931481	     -1.17465067	      0.09171155	     -0.42931481	     -0.96735937	      0.07451513	     -0.36006365	     -0.89826228	      0.04585176	     -0.27350853	     -0.82916518	      0.57317913	     -1.99740684	     -6.14875729	      0.00000000	      0.00000000	     26.88824826	     -1.56363363	     -6.43233464	      1.83064738	     -9.42472849	     10.19029610	     96.93361488	     85.46422518	    -14.11894228	      9.37080450	     -2.31197267	    -14.97281751	      8.94890696	    124.84207101	     84.75955353	    -15.67362724	      7.75090647
      1.43589744	     -2.18790768	     -5.48122134	     93.85055094	      0.20861940	      0.76446024	      0.69978468	     14.62713297	     -3.73885859	      1.92477026	     16.15926779	      0.28203243	     22.58378296	     -8.13953861	      0.00000000	     13.54351997	      2.16314952	     -2.38375047	     11.14626283	      0.19453899	     26.20006605	      3.10399111	      0.00000000	      0.11059958	     -0.23136895	     -0.77464467	      0.20539449	     -0.30772071	     -0.82305996	      0.18170406	     -0.56255047	     -0.82305996	      0.12640426	     -0.56255047	     -0.67781409	      0.10270277	     -0.47180757	     -0.62939880	      0.06319660	     -0.35839051	     -0.58098350	      0.79000176	     -2.61729185	     -4.30834127	      0.00000000	      0.00000000	     27.54885562	     -2.10844705	     -8.42700877	      0.62853245	     -9.38731605	     10.19232257	     96.17636650	     84.23047219	    -15.45296399	     10.23270222	     -0.13929211	    -14.39623697	      7.83426020	    127.66181765	     81.24269184	    -14.96345370	     10.67838399
      1.46153846	     -2.34034825	     -5.59152974	     92.77505222	      0.21088690	      0.76449823	      0.70059380	     14.74947810	     -3.60771382	      3.10924080	     15.78403731	      0.27548342	     22.23684110	     -7.88368152	      0.00000000	     13.62012674	      2.02024101	     -3.34840944	     11.14648839	      0.19454292	     25.71269152	      2.97884116	      0.00000000	      0.14015118	     -0.26866781	     -0.52634898	      0.26027475	     -0.35732819	     -0.55924580	      0.23025437	     -0.65323891	     -0.55924580	      0.16017878	     -0.65323891	     -0.46055536	      0.13014438	     -0.54786740	     -0.42765855	      0.08008238	     -0.41616644	     -0.39476174	      1.00108585	     -3.03922400	     -2.92739514	      0.00000000	      0.00000000	     27.87822625	     -2.50821033	     -9.90476015	     -0.40676214	     -9.58324835	     10.31945321	     95.57775547	     82.64559834	    -16.39046053	     11.02266211	      2.41217640	    -13.37791513	      6.71490295	    130.15703063	     77.11388671	    -14.88154001	     12.67179288
      1.48717949	     -2.48286052	     -5.75531575	     91.89522511	      0.21281917	      0.76427851	      0.70149058	     14.90184273	     -3.48410086	      4.35716455	     15.41731538	      0.26908292	     21.86481244	     -8.17940274	      0.00000000	     13.83395620	      1.91138837	     -4.11851861	     11.26074918	      0.19653715	     25.20294315	      2.87930341	      0.00000000	      0.17159305	     -0.29881461	     -0.30743341	      0.31866545	     -0.39742343	     -0.32664800	      0.28191022	     -0.72653785	     -0.32664800	      0.19611370	     -0.72653785	     -0.26900423	      0.15934131	     -0.60934276	     -0.24978964	      0.09804827	     -0.46286383	     -0.23057506	      1.22567200	     -3.38025065	     -1.70985238	      0.00000000	      0.00000000	     28.05197139	     -2.81178280	    -10.80715067	     -1.37330087	     -9.76149897	     10.35541463	     95.10051662	     80.12556715	    -17.11859340	     11.48703899	      5.36113610	    -12.26459899	      5.88263483	    131.79344317	     71.42995831	    -14.53941081	     12.57989356
      1.51282051	     -2.68491667	     -5.95130426	     90.66141079	      0.21482979	      0.76389433	      0.70245802	     15.21744736	     -3.42175201	      5.51233198	     15.21229385	      0.26550461	     21.73072872	     -7.68175529	      0.00000000	     14.06303292	      1.83896643	     -4.80258640	     11.34607454	      0.19802636	     24.65871545	      2.17074808	      0.00000000	      0.20174433	     -0.32413679	     -0.05421037	      0.37465940	     -0.43110193	     -0.05759852	      0.33144576	     -0.78810619	     -0.05759852	      0.23057360	     -0.78810619	     -0.04743407	      0.18733979	     -0.66097974	     -0.04404592	      0.11527671	     -0.50208789	     -0.04065778	      1.44103959	     -3.66670020	     -0.30150181	      0.00000000	      0.00000000	     28.15702207	     -2.74107540	    -10.92006618	     -2.21867938	     -9.97880373	     10.40612080	     94.99035334	     78.41094047	    -17.54878627	     13.26969330	      8.35737745	    -11.10357018	      5.20787877	    132.82223359	     69.43255358	    -14.83525370	     12.25379029
      1.53846154	     -2.83388603	     -6.13823413	     89.38279792	      0.21658652	      0.76338547	      0.70345010	     15.53271822	     -3.29271408	      6.76842536	     14.99709976	      0.26174877	     21.59546246	     -7.26380528	      0.00000000	     14.28869757	      1.72155907	     -5.34247253	     11.47386042	      0.20025664	     24.17049706	      1.33783892	      0.00000000	      0.22531589	     -0.33728324	      0.21039615	      0.41843414	     -0.44858671	      0.22354591	      0.37017147	     -0.82007047	      0.22354591	      0.25751353	     -0.82007047	      0.18409663	      0.20922833	     -0.68778798	      0.17094687	      0.12874550	     -0.52245174	      0.15779711	      1.60940886	     -3.81541546	      1.17016028	      0.00000000	      0.00000000	     28.21647168	     -2.87518939	    -11.12985981	     -3.02421568	    -10.28449516	     10.39857098	     95.13332762	     76.72335238	    -17.66346404	     15.24248621	     11.07483557	    -10.20807744	      5.10014037	    133.05700182	     67.93830970	    -14.91616571	     10.66449599
      1.56410256	     -2.88222019	     -6.32503568	     88.22589449	      0.21805727	      0.76281468	      0.70462522	     15.85725418	     -3.05760842	      8.05306147	     14.79428660	      0.25820901	     21.41009450	     -7.15230573	      0.00000000	     14.47913088	      1.56350259	     -5.42845332	     11.52207997	      0.20109823	     23.66015389	      0.15025498	      0.00000000	      0.24482287	     -0.33765625	      0.47585373	      0.45466054	     -0.44908281	      0.50559459	      0.40221949	     -0.82097739	      0.50559459	      0.27980805	     -0.82097739	      0.41637201	      0.22734251	     -0.68854862	      0.38663116	      0.13989179	     -0.52302952	      0.35689030	      1.74874524	     -3.81963498	      2.64655569	      0.00000000	      0.00000000	     28.25383249	     -3.47913394	    -11.75268503	     -3.78081771	    -10.64508764	     10.19248810	     95.46152882	     75.25099889	    -17.34686512	     17.00452217	     13.51096120	     -9.54903031	      5.56896100	    132.70330760	     65.56014667	    -15.41759532	      8.29933120
      1.58974359	     -2.73884631	     -6.53091310	     87.16592397	      0.21899848	      0.76242116	      0.70612866	     16.20775718	     -2.70320400	      8.83444333	     14.58260778	      0.25451452	     21.19203478	     -6.53877741	      0.00000000	     14.72805402	      1.19675896	     -5.83286260	     11.61268085	      0.20267952	     23.47048288	     -0.44748291	      0.00000000	      0.25636866	     -0.30633936	      0.70016080	      0.47610223	     -0.40743135	      0.74392086	      0.42118806	     -0.74483352	      0.74392086	      0.29300374	     -0.74483352	      0.61264070	      0.23806393	     -0.62468722	      0.56888065	      0.14648905	     -0.47451967	      0.52512060	      1.83121567	     -3.46537210	      3.89408435	      0.00000000	      0.00000000	     28.27762257	     -3.94698765	    -11.50744989	     -4.24728129	    -11.21327289	     10.20984907	     95.88314878	     74.76228550	    -17.40704061	     18.61959340	     15.49918284	     -8.79922622	      5.54912008	    132.43103909	     65.35645003	    -15.82883985	      7.55977829
      1.61538462	     -2.59145477	     -6.73856468	     86.31283011	      0.21972422	      0.76232839	      0.70775337	     16.57575226	     -2.37422327	      9.44684333	     14.43936170	      0.25201440	     20.84436312	     -6.05188023	      0.00000000	     15.00637778	      0.85224041	     -6.19958021	     11.67681512	      0.20379887	     23.40877998	     -0.90726957	      0.00000000	      0.26331782	     -0.27800249	      0.93508384	      0.48900752	     -0.36974331	      0.99352658	      0.43260484	     -0.67593526	      0.99352658	      0.30094594	     -0.67593526	      0.81819836	      0.24451693	     -0.56690268	      0.75975562	      0.15045980	     -0.43062586	      0.70131288	      1.88085285	     -3.14481980	      5.20065581	      0.00000000	      0.00000000	     28.29057228	     -4.89391433	    -11.89045095	     -4.73868903	    -11.66665763	      9.85777783	     96.28405879	     74.58501182	    -17.34913221	     20.08678511	     17.49828248	     -8.20438878	      5.80334558	    132.08486762	     65.47608672	    -16.20720986	      7.19223704
